<svg xmlns="http://www.w3.org/2000/svg" viewBox="0 0 45.6 15.85"><defs><style>.cls-1{fill:#d8d8d8;stroke:#757575;stroke-width:0.75px;}.cls-2{fill:#3f3f3f;}</style></defs><g id="Layer_2" data-name="Layer 2"><g id="Layer_1-2" data-name="Layer 1"><rect class="cls-1" x="0.38" y="0.38" width="44.85" height="15.1" rx="7.55"/><path class="cls-2" d="M10.41,11.37V4.21H13.1a3.22,3.22,0,0,1,1.31.22,1.7,1.7,0,0,1,.78.67,1.72,1.72,0,0,1,.28.94,1.6,1.6,0,0,1-.25.87,1.72,1.72,0,0,1-.75.65,1.93,1.93,0,0,1,1,.65,1.78,1.78,0,0,1,.35,1.09,2,2,0,0,1-.22.93,1.8,1.8,0,0,1-.52.67,2.34,2.34,0,0,1-.78.35,4.81,4.81,0,0,1-1.16.12Zm.95-4.15h1.55a3.7,3.7,0,0,0,.9-.08,1,1,0,0,0,.54-.36,1,1,0,0,0,.19-.62,1.19,1.19,0,0,0-.17-.63.87.87,0,0,0-.49-.37,4,4,0,0,0-1.09-.1H11.36Zm0,3.31h1.78a4.37,4.37,0,0,0,.65,0,1.56,1.56,0,0,0,.54-.19,1,1,0,0,0,.36-.4,1.21,1.21,0,0,0,.15-.6,1.18,1.18,0,0,0-.21-.7,1.1,1.1,0,0,0-.57-.42A3.87,3.87,0,0,0,13,8.06H11.36Z"/><path class="cls-2" d="M17.14,11.37V4.21h5.18v.85H18.09V7.25h4v.84h-4v2.44h4.39v.84Z"/><path class="cls-2" d="M25.61,11.37V5.06H23.25V4.21h5.68v.85H26.56v6.31Z"/><path class="cls-2" d="M28.37,11.37l2.75-7.16h1l2.93,7.16H34L33.16,9.2h-3l-.78,2.17Zm2.07-2.94h2.42l-.74-2c-.23-.6-.4-1.1-.51-1.49a8.5,8.5,0,0,1-.39,1.37Z"/></g></g></svg>