<?xml version="1.0" encoding="utf-8"?>
<!-- Generator: Adobe Illustrator 25.2.1, SVG Export Plug-In . SVG Version: 6.00 Build 0)  -->
<svg version="1.1" id="Layer_1" xmlns="http://www.w3.org/2000/svg" xmlns:xlink="http://www.w3.org/1999/xlink" x="0px" y="0px"
	 viewBox="0 0 134 133" style="enable-background:new 0 0 134 133;" xml:space="preserve">
<style type="text/css">
	.st0{fill:#FFFFFF;stroke:#4D4D4D;stroke-width:3;stroke-miterlimit:10;}
	.st1{fill:#FFFFFF;}
	.st2{fill:none;stroke:#4D4D4D;stroke-width:3;stroke-miterlimit:10;}
	.st3{fill:#D01700;}
</style>
<g>
	<g id="Layer_2_1_">
		<g id="make_a_report_1">
			<image style="overflow:visible;opacity:0.5;enable-background:new    ;" width="134" height="133" xlink:href="64E8FFDA.png" >
			</image>
			<circle class="st0" cx="63.7" cy="63.4" r="49.8"/>
		</g>
	</g>
</g>
<path class="st1" d="M304.1,63.4c0,28.3-23,51.3-51.3,51.3s-51.3-23-51.3-51.3c0-28.3,23-51.3,51.3-51.3S304.1,35.1,304.1,63.4z"/>
<g>
	<path class="st2" d="M59,33.1c0-2.8-2.3-5-5-5c-2.8,0-5,2.3-5,5v0.1v26.1v0.1c0,2.5-0.1,3.8-1.4,4.8c-0.8,0.6-1.8,0.8-2.2,0.8
		c-0.4,0-1.6,0.1-2.9-0.5c0,0-0.1-0.1-0.3-0.2c-1.4-0.9-2.2-2.5-2.3-2.7c-0.9-1.8-3.5-4-5.9-4.8c-2.4-0.8-6-0.6-7.3,1.4
		c-0.3,0.4-0.6,1.1-0.5,2.5c0.3,3.6,3.2,5.5,5.5,8c1.9,2,0.9,1.7,6.6,13.5c2.6,5.3,3.9,7.9,5.3,9.6c4.1,5,8.9,7.3,10.1,7.8
		c1.4,0.6,9.9,4.3,19.7,0.9c2.6-0.9,7.3-2.6,10.8-7.3c2-2.8,2.8-5.5,3.2-7.3"/>
	<path class="st2" d="M68.9,59.4L69,31.1c0-2.8-2.3-5-5-5c-2.8,0-5,2.3-5,5V32"/>
	<path class="st2" d="M69,35c0-2.8,2.3-5,5-5s5,2.3,5,5v23.3"/>
	<path class="st2" d="M79.1,39.4c0.9-0.7,2-1.2,3.2-1.2c2.8,0,5,2.3,5,5v42.6"/>
	<line class="st2" x1="59" y1="59.5" x2="59" y2="32.9"/>
</g>
<path class="st3" d="M64.7,92.1c0,0,14.4-7.1,13.7-17.2c-0.7-10.1-13.7-8.4-13.7,3.2l0,0c0-11.7-13-13.3-13.7-3.2
	S64.8,92.1,64.7,92.1"/>
</svg>
