<?xml version="1.0" encoding="utf-8"?>
<!-- Generator: Adobe Illustrator 25.2.1, SVG Export Plug-In . SVG Version: 6.00 Build 0)  -->
<svg version="1.1" id="Layer_1" xmlns="http://www.w3.org/2000/svg" xmlns:xlink="http://www.w3.org/1999/xlink" x="0px" y="0px"
	 viewBox="0 0 124 124" style="enable-background:new 0 0 124 124;" xml:space="preserve">
<style type="text/css">
	.st0{fill:#FFFFFF;stroke:#4D4D4D;stroke-width:3;stroke-miterlimit:10;}
	.st1{fill:#FFFFFF;}
	.st2{fill:none;stroke:#4D4D4D;stroke-width:3;stroke-miterlimit:10;}
	.st3{fill:#D01700;}
</style>
<g>
	<g id="Layer_2_1_">
		<g id="Layer_2-2">
			
				<image style="overflow:visible;opacity:0.5;enable-background:new    ;" width="124" height="124" xlink:href="66AFE931.png"  transform="matrix(1 0 0 1 0 -4.8164)">
			</image>
			<path class="st0" d="M110.4,54.4c0,28.3-23,51.3-51.3,51.3c-28.3,0-51.3-23-51.3-51.3c0-28.3,23-51.3,51.3-51.3c0,0,0,0,0,0
				C87.4,3.1,110.4,26,110.4,54.4z"/>
			<path class="st1" d="M84.2,77.1c-0.5,2.6-1.6,5.1-3.2,7.3c-2.7,3.5-6.5,6.1-10.8,7.3c-6.5,2.1-13.5,1.8-19.7-0.9
				c-3.9-1.8-7.4-4.5-10.1-7.8c-1.3-1.7-2.7-4.3-5.3-9.6C29.4,61.7,30.4,62,28.6,60c-2.3-2.5-5.1-4.5-5.5-8c-0.1-0.9,0-1.8,0.5-2.5
				c1.3-2,4.9-2.2,7.3-1.4c2.5,0.9,4.6,2.6,5.9,4.8c0.5,1.1,1.3,2.1,2.3,2.8l0.3,0.2c0.9,0.5,1.9,0.7,2.9,0.5
				c0.8-0.1,1.5-0.3,2.2-0.8c1.3-1,1.4-2.3,1.4-4.8V24.4c0-2.8,2.3-5,5-5s5,2.3,5,5l-0.1-1.1v-0.9c0-2.8,2.3-5,5-5s5,2.3,5,5v3.9
				c0-2.8,2.3-5,5-5c2.8,0,5,2.3,5,5v4.4c2.1-1.8,5.3-1.5,7,0.6c0.8,0.9,1.2,2.1,1.2,3.3L84.2,77.1"/>
			<path class="st2" d="M65.3,50.3l0.1-28.3c0-2.8-2.3-5-5-5s-5,2.3-5,5v0.9"/>
			<path class="st2" d="M65.5,26c0-2.8,2.3-5,5-5c2.8,0,5,2.3,5,5v23.3"/>
			<path class="st2" d="M75.5,30.3c2.1-1.8,5.3-1.5,7,0.6c0.8,0.9,1.2,2.1,1.2,3.3v42.6c-0.5,2.6-1.6,5.1-3.2,7.3
				c-2.7,3.5-6.5,6.1-10.8,7.3c-10.8,3.6-22.7,0.2-29.8-8.7c-1.3-1.7-2.7-4.3-5.3-9.6C29,61.3,30,61.6,28.2,59.6
				c-2.3-2.5-5.1-4.5-5.5-8c-0.1-0.9,0-1.8,0.5-2.5c1.3-2,4.9-2.2,7.3-1.4c2.5,0.9,4.6,2.6,5.9,4.8c0.5,1.1,1.3,2.1,2.3,2.7l0.3,0.2
				c0.9,0.5,1.9,0.7,2.9,0.5c0.8-0.1,1.5-0.3,2.2-0.8c1.3-1,1.4-2.3,1.4-4.8V24c0-2.8,2.3-5,5-5s5,2.3,5,5"/>
			<line class="st2" x1="55.5" y1="50.5" x2="55.5" y2="23.9"/>
			<path class="st3" d="M60.2,83.8c0,0,14.4-7.1,13.7-17.2s-11.9-8.9-13.7-6l0,0c-1.8-3-13-4.1-13.7,6S60.2,83.8,60.2,83.8"/>
		</g>
	</g>
</g>
<g id="Layer_2_2_">
	<g id="Layer_2-2_1_">
		
			<image style="overflow:visible;opacity:0.5;enable-background:new    ;" width="75" height="74" xlink:href="66AFE933.png"  transform="matrix(0.7987 0 0 0.7987 64.6309 69.7138)">
		</image>
		<circle class="st1" cx="92.3" cy="96.8" r="21.1"/>
		<circle class="st2" cx="92.3" cy="96.8" r="21.1"/>
	</g>
</g>
</svg>
